<?xml version="1.0" encoding="UTF-8"?>
<svg viewBox="0 0 16 16" version="1.1" xmlns="http://www.w3.org/2000/svg" xmlns:xlink="http://www.w3.org/1999/xlink">
    <g id="Icons" stroke="none" stroke-width="1" fill="none" fill-rule="evenodd">
        <g id="Icons-Export" transform="translate(-239.000000, -281.000000)" fill="currentColor">
            <path d="M246.955019,294.427797 L241.914174,294.427797 C241.54795,294.427797 241.502117,294.380417 241.501927,294.003701 C241.501674,293.661442 241.503571,293.319116 241.500094,292.976791 C241.495858,292.557068 241.634496,292.232568 242.007738,292.026815 C243.050335,291.452032 244.086105,290.863598 245.12883,290.28908 C245.252611,290.22096 245.301985,290.154231 245.29895,290.004405 C245.288709,289.491116 245.297054,288.977496 245.292502,288.464074 C245.291933,288.399399 245.275812,288.311201 245.234278,288.27449 C244.955105,288.028116 244.834295,287.700568 244.8281,287.338164 C244.817163,286.692942 244.805215,286.044737 244.849467,285.402032 C244.922358,284.343713 245.652341,283.611152 246.660548,283.516261 C247.086324,283.47617 247.502364,283.503008 247.899944,283.678544 C248.663496,284.015701 249.020807,284.662249 249.074036,285.490098 C249.11399,286.111201 249.092939,286.737405 249.081623,287.36096 C249.075364,287.708984 248.952784,288.015195 248.696749,288.255803 C248.650347,288.299405 248.618232,288.385484 248.61741,288.452478 C248.611088,288.987966 248.616715,289.523586 248.611467,290.059074 C248.610456,290.164767 248.646933,290.211815 248.736261,290.253429 C249.863381,290.778845 250.922732,291.437122 251.989416,292.081152 C252.267324,292.248936 252.397617,292.505514 252.403054,292.83114 C252.410577,293.278231 252.406341,293.725454 252.406341,294.172676 C252.406341,294.316538 252.332944,294.398574 252.200755,294.420508 C252.144048,294.429917 252.085318,294.427532 252.027473,294.427532 C250.336634,294.427863 248.645858,294.427797 246.955019,294.427797"
                  id="Imported-Layers"></path>
        </g>
    </g>
</svg>
